<?xml version="1.0" standalone="no"?>
<!DOCTYPE svg PUBLIC "-//W3C//DTD SVG 20010904//EN"
 "http://www.w3.org/TR/2001/REC-SVG-20010904/DTD/svg10.dtd">
<svg version="1.0" xmlns="http://www.w3.org/2000/svg"
 width="704.000000pt" height="704.000000pt" viewBox="0 0 704.000000 704.000000"
 preserveAspectRatio="xMidYMid meet">
<metadata>
Created by potrace 1.11, written by Peter Selinger 2001-2013
</metadata>
<g transform="translate(0.000000,704.000000) scale(0.100000,-0.100000)"
fill="#000000" stroke="none">
<path d="M2130 6610 c-60 -60 -110 -114 -110 -118 0 -4 234 -241 521 -527 335
-334 516 -521 508 -525 -6 -5 -23 -4 -38 0 -14 4 -35 4 -46 0 -11 -4 -32 -4
-47 1 -15 4 -30 4 -33 0 -2 -5 -23 -5 -45 -1 -22 4 -40 4 -40 0 0 -4 -18 -4
-40 0 -22 4 -43 3 -46 -1 -3 -5 -10 -7 -15 -3 -6 3 -50 6 -99 6 -49 0 -93 -3
-99 -6 -5 -4 -12 -2 -15 3 -3 5 -21 5 -41 1 -19 -4 -37 -4 -40 0 -3 4 -21 4
-40 0 -19 -4 -37 -4 -40 0 -3 4 -20 5 -37 1 -33 -7 -92 -5 -115 4 -7 2 -13 1
-13 -4 0 -5 -18 -5 -40 -1 -22 4 -40 4 -40 0 0 -4 -20 -4 -45 0 -25 4 -45 4
-45 1 0 -7 -118 -4 -137 4 -7 2 -13 1 -13 -4 0 -4 -20 -5 -45 -1 -25 4 -45 3
-45 -2 0 -5 -4 -7 -9 -4 -13 9 -186 10 -199 2 -6 -3 -13 -2 -16 3 -3 5 -21 5
-41 1 -19 -4 -37 -4 -40 0 -3 4 -21 4 -40 0 -19 -4 -37 -4 -40 0 -3 4 -21 4
-40 0 -19 -4 -37 -4 -40 0 -3 4 -21 4 -40 0 -19 -4 -37 -4 -40 0 -3 4 -21 4
-40 0 -19 -4 -37 -4 -40 0 -3 4 -21 4 -40 0 -19 -4 -37 -4 -40 1 -3 4 -11 6
-18 4 -23 -9 -82 -11 -114 -4 -18 4 -33 3 -33 -1 0 -4 -18 -4 -40 0 -22 4 -40
4 -40 0 0 -4 -20 -4 -45 0 -25 4 -45 4 -45 1 0 -3 -30 -5 -67 -4 -81 2 -179
-17 -248 -48 -27 -12 -52 -23 -55 -24 -23 -5 -106 -69 -156 -120 -52 -53 -122
-155 -131 -190 -1 -5 -13 -37 -25 -70 l-23 -60 -2 -2027 c-2 -1319 1 -2036 7
-2053 5 -14 12 -40 15 -58 11 -65 85 -195 149 -260 53 -55 166 -142 189 -146
4 0 22 -7 40 -15 19 -7 65 -21 103 -30 62 -14 353 -16 3019 -16 2837 0 2953 1
3021 19 136 35 257 109 334 201 19 24 40 48 46 54 16 16 82 155 88 186 3 14
10 45 15 70 6 28 10 792 10 2035 -1 2181 3 2048 -62 2186 -42 89 -53 105 -140
190 -67 67 -195 142 -263 155 -44 9 -59 12 -59 14 0 2 -131 10 -165 10 -14 0
-34 0 -45 0 -11 -1 -41 0 -68 0 -26 1 -51 -1 -56 -5 -5 -3 -12 -1 -15 3 -3 5
-25 6 -48 3 -24 -4 -60 -4 -81 0 -21 3 -40 2 -43 -3 -3 -4 -10 -6 -15 -3 -5 4
-33 6 -61 5 -54 -1 -108 0 -143 4 -11 1 -35 -1 -53 -5 -17 -4 -34 -3 -37 1 -3
4 -21 4 -40 0 -19 -4 -37 -4 -40 0 -3 4 -21 4 -40 0 -19 -4 -37 -4 -40 0 -3 4
-20 5 -37 1 -33 -7 -92 -5 -115 4 -7 2 -13 1 -13 -4 0 -5 -18 -5 -40 -1 -22 4
-40 4 -40 0 0 -4 -20 -4 -45 0 -25 4 -45 4 -45 1 0 -7 -118 -4 -137 4 -7 2
-13 1 -13 -4 0 -4 -20 -5 -45 -1 -25 4 -45 3 -45 -2 0 -5 -4 -7 -9 -4 -13 9
-186 10 -199 2 -6 -3 -13 -2 -16 3 -3 5 -21 5 -41 1 -19 -4 -37 -4 -40 0 -3 4
-21 4 -40 0 -19 -4 -37 -4 -40 0 -3 4 -20 5 -38 1 -18 -5 -41 -6 -52 -4 -18 3
-30 3 -90 3 -11 -1 -41 0 -68 0 -26 1 -51 -1 -56 -5 -5 -3 -12 -1 -16 5 -4 6
-10 8 -15 5 -5 -3 -33 -5 -62 -5 -29 0 -62 0 -73 0 -54 -1 -99 1 -106 6 -4 2
227 238 513 525 517 517 520 520 502 541 -11 11 -61 63 -112 114 l-92 94 -635
-635 c-349 -349 -639 -635 -645 -635 -6 0 -296 286 -645 635 l-635 635 -110
-110z m-1415 -1810 c3 4 21 4 40 0 19 -4 37 -4 40 0 2 4 23 4 45 0 21 -4 42
-5 44 -2 9 8 166 7 166 -1 0 -5 4 -5 10 -2 5 3 33 5 62 5 29 0 60 -1 68 -1 8
0 80 1 160 1 80 1 150 1 155 0 6 -1 12 -2 15 -1 17 7 170 4 170 -2 0 -5 4 -5
10 -2 5 3 33 5 62 5 29 0 60 -1 68 -1 8 0 80 1 160 1 80 1 150 1 155 0 6 -1
12 -2 15 -1 17 7 170 4 170 -2 0 -5 4 -5 10 -2 5 3 33 5 62 5 158 -2 209 -1
217 5 5 3 12 1 15 -4 3 -5 21 -5 41 -1 19 4 37 4 40 0 3 -4 21 -4 40 0 19 4
37 4 40 -1 3 -4 11 -6 18 -4 23 9 82 11 115 4 17 -4 32 -3 32 1 0 4 18 4 40 0
22 -4 40 -4 40 0 0 4 20 4 45 0 25 -4 45 -4 45 -1 0 7 118 4 138 -4 6 -2 12
-1 12 4 0 4 20 5 45 1 25 -4 45 -3 45 2 0 5 4 7 9 4 13 -9 186 -10 199 -2 6 3
13 2 16 -3 3 -5 21 -5 41 -1 19 4 37 4 40 0 3 -4 21 -4 40 0 19 4 37 4 40 0 3
-4 20 -5 38 -1 18 5 41 6 52 4 18 -3 30 -3 90 -3 11 1 41 0 68 0 26 -1 51 1
56 5 5 3 12 1 15 -3 3 -5 25 -6 48 -3 24 4 60 4 81 0 21 -3 40 -2 43 3 3 4 9
6 13 4 8 -5 41 -7 126 -7 28 0 61 -1 75 -2 14 -2 40 0 58 4 17 4 34 3 37 -1 3
-4 21 -4 40 0 19 4 37 4 40 0 3 -4 21 -4 40 0 19 4 37 4 40 -1 3 -4 11 -6 18
-4 23 9 82 11 115 4 17 -4 32 -3 32 1 0 4 18 4 40 0 22 -4 40 -4 40 0 0 4 20
4 45 0 25 -4 45 -4 45 -1 0 7 118 4 138 -4 6 -2 12 -1 12 4 0 4 20 5 45 1 25
-4 45 -3 45 2 0 5 4 7 9 4 13 -9 186 -10 199 -2 6 3 13 2 16 -3 3 -5 21 -5 41
-1 19 4 37 4 40 0 3 -4 21 -4 40 0 19 4 37 4 40 0 3 -4 20 -5 38 -1 18 5 41 6
52 4 18 -3 30 -3 90 -3 11 1 41 0 68 0 26 -1 51 1 56 5 5 3 12 1 15 -3 3 -5
25 -6 48 -3 24 4 60 4 81 0 21 -3 40 -3 42 1 3 4 22 4 42 1 21 -4 51 -4 67 -1
16 3 51 3 78 2 39 -3 48 -7 46 -20 -1 -10 1 -23 5 -29 5 -7 4 -13 -2 -13 -6 0
-6 -11 -1 -30 5 -17 5 -30 0 -30 -5 0 -7 -6 -4 -14 8 -21 10 -106 2 -106 -3 0
-3 -12 1 -27 4 -16 4 -44 1 -65 -4 -20 -4 -42 1 -49 4 -7 4 -20 -1 -29 -5 -9
-5 -22 0 -30 5 -8 5 -21 0 -30 -5 -9 -5 -22 0 -30 5 -8 5 -21 0 -30 -5 -9 -5
-22 0 -30 5 -8 5 -21 0 -30 -5 -9 -5 -22 0 -30 5 -8 5 -21 0 -30 -5 -9 -5 -22
0 -30 5 -8 5 -21 0 -30 -5 -9 -5 -22 0 -30 5 -8 5 -21 0 -30 -5 -9 -5 -22 0
-30 5 -8 5 -21 0 -30 -5 -9 -5 -22 0 -30 5 -8 5 -21 0 -30 -5 -9 -5 -22 0 -30
5 -8 5 -21 0 -30 -5 -9 -5 -22 0 -30 5 -8 5 -21 0 -30 -5 -9 -5 -22 0 -30 5
-8 5 -21 0 -30 -5 -9 -5 -22 0 -30 5 -8 5 -21 0 -30 -5 -9 -5 -22 0 -30 5 -8
5 -21 0 -30 -5 -9 -5 -22 0 -30 5 -8 5 -21 0 -30 -5 -9 -5 -22 0 -30 5 -8 5
-21 0 -30 -5 -9 -5 -22 0 -30 5 -8 5 -21 0 -30 -5 -9 -5 -22 0 -30 5 -8 5 -21
0 -30 -5 -9 -5 -22 0 -30 4 -7 4 -24 0 -36 -6 -14 -5 -26 0 -29 5 -3 5 -18 0
-35 -5 -17 -5 -30 0 -30 5 0 5 -13 0 -30 -5 -17 -5 -30 0 -30 5 0 5 -13 0 -30
-5 -17 -5 -30 0 -30 5 0 5 -13 0 -30 -5 -17 -5 -30 0 -30 5 0 5 -13 0 -30 -5
-17 -5 -30 0 -30 5 0 5 -13 0 -30 -5 -17 -5 -30 0 -30 5 0 5 -13 0 -30 -5 -17
-5 -30 0 -30 5 0 5 -13 0 -30 -5 -17 -5 -30 0 -30 5 0 5 -13 0 -30 -5 -17 -5
-30 0 -30 5 0 5 -13 0 -30 -5 -17 -5 -30 0 -30 5 0 5 -13 0 -30 -5 -17 -5 -30
0 -30 5 0 5 -13 0 -30 -5 -17 -5 -30 0 -30 5 0 5 -13 0 -30 -5 -17 -5 -30 0
-30 5 0 5 -13 0 -30 -5 -17 -5 -30 0 -30 5 0 5 -13 0 -30 -5 -17 -5 -30 0 -30
5 0 5 -13 0 -30 -5 -17 -5 -30 0 -30 5 0 5 -13 0 -30 -5 -17 -5 -30 0 -30 5 0
5 -13 0 -30 -5 -17 -5 -30 0 -30 5 0 5 -13 0 -30 -5 -16 -6 -30 -2 -30 4 0 7
-29 7 -65 0 -36 -3 -65 -7 -65 -4 0 -3 -12 1 -27 4 -16 5 -39 1 -53 -3 -14 -3
-38 0 -55 3 -16 3 -45 -1 -62 -4 -18 -3 -33 1 -33 5 0 5 -14 0 -30 -5 -17 -5
-30 0 -30 5 0 5 -13 0 -30 -5 -17 -5 -30 0 -30 5 0 5 -13 0 -30 -5 -17 -5 -30
0 -30 5 0 5 -13 0 -30 -5 -17 -5 -30 0 -30 5 0 5 -13 0 -30 -5 -17 -5 -30 0
-30 5 0 5 -13 0 -30 -5 -17 -5 -30 0 -30 5 0 5 -13 0 -30 -5 -17 -5 -30 0 -30
5 0 5 -13 0 -30 -5 -17 -5 -30 0 -30 5 0 5 -13 0 -30 -5 -17 -5 -30 0 -30 5 0
5 -13 0 -30 -5 -16 -6 -30 -2 -30 4 0 7 -16 7 -35 0 -19 -3 -35 -7 -35 -4 0
-3 -13 2 -30 5 -17 5 -30 0 -30 -5 0 -5 -13 0 -29 4 -15 4 -34 0 -40 -7 -13
-115 -19 -126 -8 -4 3 -14 2 -23 -3 -10 -5 -23 -5 -31 0 -8 5 -21 5 -30 0 -9
-5 -22 -5 -29 0 -8 4 -27 4 -42 0 -16 -5 -29 -5 -29 0 0 5 -13 5 -30 0 -17 -5
-30 -5 -30 0 0 5 -13 5 -30 0 -17 -5 -30 -5 -30 0 0 5 -13 5 -30 0 -17 -5 -30
-5 -30 0 0 4 -15 5 -32 1 -18 -4 -46 -4 -63 -1 -16 3 -47 3 -67 -1 -20 -3 -42
-3 -49 2 -7 4 -20 4 -29 -1 -9 -5 -22 -5 -30 0 -8 5 -21 5 -30 0 -9 -5 -22 -5
-30 0 -8 5 -21 5 -30 0 -9 -5 -22 -5 -29 0 -8 4 -27 4 -42 0 -16 -5 -29 -5
-29 0 0 5 -13 5 -30 0 -17 -5 -30 -5 -30 0 0 5 -13 5 -30 0 -17 -5 -30 -5 -30
0 0 5 -13 5 -30 0 -17 -5 -30 -5 -30 0 0 4 -15 5 -32 1 -18 -4 -46 -4 -63 -1
-16 3 -47 3 -67 -1 -20 -3 -42 -3 -49 2 -7 4 -20 4 -29 -1 -9 -5 -22 -5 -30 0
-8 5 -21 5 -30 0 -9 -5 -22 -5 -30 0 -8 5 -21 5 -30 0 -9 -5 -22 -5 -29 0 -8
4 -27 4 -42 0 -16 -5 -29 -5 -29 0 0 5 -13 5 -30 0 -17 -5 -30 -5 -30 0 0 5
-13 5 -30 0 -17 -5 -30 -5 -30 0 0 5 -13 5 -30 0 -16 -5 -30 -5 -30 0 0 4 -15
5 -32 1 -18 -4 -46 -4 -63 -1 -16 3 -47 3 -67 -1 -20 -3 -42 -3 -49 2 -7 4
-20 4 -29 -1 -9 -5 -22 -5 -30 0 -8 5 -21 5 -30 0 -9 -5 -22 -5 -30 0 -8 5
-21 5 -30 0 -9 -5 -22 -5 -29 0 -8 4 -27 4 -42 0 -16 -5 -29 -5 -29 0 0 5 -13
5 -30 0 -17 -5 -30 -5 -30 0 0 5 -13 5 -30 0 -17 -5 -30 -5 -30 0 0 5 -13 5
-30 0 -17 -5 -30 -5 -30 -1 0 5 -15 5 -32 2 -18 -4 -46 -4 -63 -1 -16 3 -41 3
-55 0 -14 -4 -37 -3 -52 1 -16 4 -28 5 -28 1 0 -4 -29 -7 -65 -7 -36 0 -65 3
-65 7 0 4 -14 3 -30 -2 -17 -5 -30 -5 -30 0 0 5 -13 5 -30 0 -17 -5 -30 -5
-30 0 0 5 -13 5 -30 0 -17 -5 -32 -5 -35 0 -3 5 -15 6 -29 0 -12 -4 -29 -4
-36 0 -8 5 -21 5 -30 0 -9 -5 -22 -5 -30 0 -8 5 -21 5 -31 0 -9 -5 -19 -7 -22
-4 -8 8 -106 9 -113 1 -3 -3 -18 -2 -33 3 -16 4 -34 4 -41 0 -6 -4 -27 -4 -46
0 -19 4 -36 4 -39 0 -3 -5 -18 -5 -34 0 -16 4 -32 6 -35 2 -8 -8 -102 -5 -116
3 -5 3 -10 2 -10 -4 0 -6 -11 -6 -30 -1 -17 5 -30 5 -30 0 0 -5 -13 -5 -30 0
-17 5 -30 5 -30 0 0 -5 -13 -5 -30 0 -17 5 -30 5 -30 0 0 -5 -13 -5 -30 0 -17
5 -30 5 -30 0 0 -5 -13 -5 -30 0 -17 5 -30 5 -30 0 0 -5 -13 -5 -30 0 -17 5
-30 5 -30 0 0 -5 -13 -5 -30 0 -17 5 -30 5 -30 0 0 -5 -13 -5 -30 0 -19 5 -30
5 -30 -1 0 -6 -4 -7 -10 -4 -13 8 -108 11 -115 3 -4 -3 -19 -3 -34 2 -16 4
-34 4 -41 0 -6 -4 -27 -4 -46 0 -19 4 -36 4 -39 0 -3 -5 -18 -5 -34 0 -16 4
-32 6 -35 2 -8 -8 -102 -5 -116 3 -5 3 -10 3 -10 -2 0 -4 -29 -8 -65 -8 -36 0
-65 3 -65 7 0 4 -14 3 -30 -2 -17 -5 -30 -5 -30 0 0 5 -13 5 -30 0 -17 -5 -30
-5 -30 0 0 5 -13 5 -30 0 -17 -5 -32 -5 -35 0 -3 5 -15 6 -29 0 -12 -4 -29 -4
-36 0 -8 5 -21 5 -30 0 -9 -5 -22 -5 -30 0 -8 5 -21 5 -30 0 -9 -5 -22 -5 -28
-1 -7 4 -35 5 -62 1 -27 -4 -55 -3 -62 1 -6 4 -19 4 -28 -1 -9 -5 -22 -5 -30
0 -8 5 -21 5 -30 0 -9 -5 -22 -5 -30 0 -8 5 -21 5 -30 0 -9 -5 -22 -5 -29 0
-8 4 -27 4 -42 0 -16 -5 -29 -5 -29 0 0 5 -13 5 -30 0 -17 -5 -30 -5 -30 0 0
5 -13 5 -30 0 -17 -5 -30 -6 -30 -2 0 8 -68 7 -76 -1 -3 -3 -17 -2 -30 3 -14
6 -26 6 -29 0 -3 -5 -15 -6 -28 -1 -12 5 -26 8 -32 7 -11 -1 -17 41 -14 97 0
6 0 21 -1 32 0 11 0 27 0 35 1 8 1 24 0 35 0 11 0 28 0 38 0 9 0 40 -1 67 -1
28 1 53 4 56 3 3 1 19 -3 35 -5 16 -5 31 0 34 4 3 4 20 0 39 -4 19 -4 40 0 46
4 7 4 26 0 41 -5 16 -5 31 0 34 4 3 4 20 0 39 -4 19 -4 40 0 46 4 7 4 26 0 41
-5 16 -5 31 0 34 4 3 4 20 0 39 -4 19 -4 40 0 46 4 7 4 25 0 41 -5 15 -6 30
-2 33 3 4 5 25 4 49 -4 99 -3 127 3 137 3 5 2 10 -4 10 -6 0 -6 11 -1 30 5 17
5 30 0 30 -5 0 -5 13 0 30 5 17 5 30 0 30 -5 0 -5 13 0 30 5 17 5 30 0 30 -5
0 -5 13 0 30 5 17 5 30 0 30 -5 0 -5 13 0 30 5 17 5 30 0 30 -5 0 -5 13 0 30
5 17 6 30 2 30 -4 0 -6 19 -4 42 1 24 3 49 2 56 0 6 0 19 0 27 0 8 0 22 0 30
0 8 0 22 0 30 0 8 0 22 0 30 0 8 0 22 0 30 0 8 0 22 0 30 0 8 0 22 0 30 0 8 0
22 0 30 0 8 0 22 0 30 0 8 0 22 0 30 0 8 0 22 0 30 0 8 0 22 0 30 0 8 0 22 0
30 0 8 0 22 0 30 0 8 0 22 0 30 0 8 0 22 0 30 0 8 0 22 0 30 0 8 0 22 0 30 0
8 0 22 0 30 0 8 0 22 0 30 0 8 0 38 -1 65 -1 28 1 53 4 56 3 3 1 19 -3 35 -5
16 -5 31 0 34 4 3 4 20 0 39 -4 19 -4 40 0 46 4 7 4 26 0 41 -5 16 -5 31 0 34
4 3 4 20 0 39 -4 19 -4 40 0 46 4 7 4 26 0 41 -5 16 -5 31 0 34 4 3 4 20 0 39
-4 19 -4 40 0 46 4 7 4 25 0 41 -5 15 -6 30 -2 33 7 8 5 112 -2 125 -4 5 -2
12 3 15 6 4 6 18 1 36 -5 17 -5 30 0 30 5 0 5 13 0 30 -5 17 -5 30 0 30 5 0 5
13 0 30 -5 17 -5 30 0 30 5 0 5 13 0 30 -5 17 -5 30 0 30 5 0 5 13 0 30 -5 17
-5 30 0 30 5 0 5 13 0 30 -5 17 -5 30 0 30 5 0 5 13 0 30 -5 17 -5 30 0 30 5
0 5 13 0 30 -5 17 -5 30 0 30 5 0 5 13 0 30 -5 17 -5 30 0 30 5 0 5 13 0 30
-5 17 -5 30 0 30 5 0 5 13 0 30 -5 17 -5 30 0 30 5 0 5 13 0 30 -5 19 -5 30 1
30 6 0 7 5 4 10 -9 14 -10 114 -2 128 5 7 17 8 37 2 16 -5 32 -5 35 0z"/>
<path d="M2055 4280 l-135 -135 493 -493 c270 -270 495 -492 499 -492 9 0 268
255 268 263 0 3 -223 228 -495 499 l-495 494 -135 -136z"/>
<path d="M3950 4409 c0 -3 85 -91 189 -196 l189 -189 -1204 -1205 -1204 -1204
132 -132 c73 -73 135 -133 139 -133 3 0 546 540 1207 1201 l1202 1201 195
-195 c191 -190 195 -194 195 -161 0 19 1 252 1 519 0 267 -1 488 -1 493 0 9
-1040 10 -1040 1z"/>
<path d="M3861 2473 l-133 -135 301 -301 300 -300 -177 -177 c-97 -98 -185
-186 -194 -196 -17 -19 -7 -19 508 -19 l524 0 1 35 c0 36 0 915 -1 981 l0 37
-195 -195 -195 -195 -300 301 c-166 166 -302 301 -303 300 -1 0 -62 -61 -136
-136z"/>
</g>
</svg>
