<svg fill="#F44336" height="20" viewBox="0 0 22 20" width="22" xmlns="http://www.w3.org/2000/svg">

<path
     d="M 7,0 6.2890625,0.7109375 9.589844,4 2,4 C 0.9,4 0,4.89 0,6 l 0,12 c 0,1.1 0.9,2 2,2 l 18,0 c 1.1,0 2,-0.9 2,-2 L 22,6 C 22,4.89 21.1,4 20,4 L 12.410156,4 15.699219,0.7109375 15,0 11,4 7,0 Z M 2,6 20,6 20,18 2,18 2,6 Z m 6.6601562,8.738281 c 2.51e-5,0.0267 8e-7,0.05338 0,0.08008 0.028347,-0.01241 0.055761,-0.0264 0.083984,-0.03906 -0.027663,-0.01421 -0.058611,-0.02438 -0.083984,-0.04102 z M 8,15.951172 8,16 8.046875,15.972656 C 8.0273321,15.966056 8.0178723,15.958032 8,15.951172 Z" />
  <g
     style="fill:#F44336"
     transform="matrix(0.6,0,0,0.6,3.6,4.8)">
    <path
       id="path3542"
       d="M 10.59,9.17 5.41,4 4,5.41 9.17,10.58 10.59,9.17 Z M 14.5,4 16.54,6.04 4,18.59 5.41,20 17.96,7.46 20,9.5 20,4 14.5,4 Z m 0.33,9.41 -1.41,1.41 3.13,3.13 -2.05,2.05 5.5,0 0,-5.5 -2.04,2.04 -3.13,-3.13 z"
       style="fill:#F44336" />
  </g>
</svg>
